# xmcd
# 
# Track frame offsets:
#     150
#     20289
#     38408
#     58541
#     74501
#     95834
#     114183
#     136022
#     152553
# 
# Disc length: 2360
# 
# Revision: 1
# Processed by: cddbd v1.5.2PL0 Copyright (c) Steve Scherf et al.
# Submitted via: fre:ac v1.1beta1pre5
# 
DISCID=68093609
DTITLE=Avec Pas de Casque - Effets Spéciaux
DYEAR=2016
DGENRE=Folk
TTITLE0=Autour
TTITLE1=La peur de perdre
TTITLE2=Il fait noir de bonne heure
TTITLE3=Derviches tourneurs
TTITLE4=Hu-Hum
TTITLE5=Audrey est plus forte que les camions
TTITLE6=Les gloires du matin
TTITLE7=Loup-Garou
TTITLE8=Nos Corps (en ré bémol)
EXTD=
EXTT0=
EXTT1=
EXTT2=
EXTT3=
EXTT4=
EXTT5=
EXTT6=
EXTT7=
EXTT8=
PLAYORDER=
